HIERARCHY
ROOT Hips
{
	OFFSET 0.00000 0.00000 0.00000
	CHANNELS 6 Xposition Yposition Zposition Yrotation Zrotation Xrotation 
	JOINT Lumbar
	{
		OFFSET 0 0 0
		CHANNELS 3 Zrotation Xrotation Yrotation
		JOINT Neck
		{
			OFFSET 0.00 0.2701 0.00
			CHANNELS 3 Zrotation Xrotation Yrotation
			End Site
			{
				OFFSET 0.00 0.1379 0.00
			}
		}
		JOINT RightShoulder
		{
			OFFSET 0.0119 0.2289 0.1181
			CHANNELS 3 Zrotation Xrotation Yrotation
			JOINT RightElbow
			{
				OFFSET 0.00 -0.1475 0.00
				CHANNELS 2 Zrotation Yrotation
				JOINT RightWrist
				{
					OFFSET 0.00 -0.1605 0.00
					CHANNELS 2 Zrotation Xrotation
					End Site
					{
						OFFSET 0.0040 -0.1068 0.0006
					}
				}
			}
		}
		JOINT LeftShoulder
		{
			OFFSET 0.0119 0.2289 -0.1181
			CHANNELS 3 Zrotation Xrotation Yrotation
			JOINT LeftElbow
			{
				OFFSET 0.00 -0.1475 0.00
				CHANNELS 2 Zrotation Yrotation
				JOINT LeftWrist
				{
					OFFSET 0.00 -0.1605 0.00
					CHANNELS 2 Zrotation Xrotation
					End Site
					{
						OFFSET 0.0040 -0.1068 -0.0006
					}
				}
			}
		}
	}
	JOINT RightHip
	{
		OFFSET 0.0316 -0.0424 0.0458
		CHANNELS 3 Zrotation Xrotation Yrotation
		JOINT RightKnee
		{
			OFFSET 0.00 -0.2438 0.00
			CHANNELS 1 Zrotation
			JOINT RightAnkle
			{
				OFFSET 0.00 -0.2449 0.00
				CHANNELS 3 Zrotation Xrotation Yrotation
				End Site
				{
					OFFSET 0.1237 -0.0542 0.0051
				}
			}
		}
	}
	JOINT LeftHip
	{
		OFFSET 0.0316 -0.0424 -0.0458
		CHANNELS 3 Zrotation Xrotation Yrotation
		JOINT LeftKnee
		{
			OFFSET 0.00 -0.2438 0.00
			CHANNELS 1 Zrotation
			JOINT LeftAnkle
			{
				OFFSET 0.00 -0.2449 0.00
				CHANNELS 3 Zrotation Xrotation Yrotation
				End Site
				{
					OFFSET 0.1237 -0.0542 -0.0051
				}
			}
		}
	}
}
MOTION
Frames: 33
Frame Time: 0.02
0.13156 0.0084 0.07421 -48.442 -40.52912 8.29528 31.68348 -4.21825 2.26495 11.09749 -14.12998 -2.11994 54.53281 0.71342 53.98556 80.02024 70.95084 16.6256 -5.12233 44.05792 12.80668 -36.98195 54.52849 -83.02794 -2.88575 6.77821 48.84449 -1.15877 -7.97227 -28.26017 -6.04037 -1.98347 -3.1688 77.04974 15.91596 0.88379 -36.32434 -13.26695 1.92148 3.47723
0.12947 0.00829 0.07371 -48.59133 -40.28093 8.55503 31.87292 -4.17509 2.89785 11.11272 -13.88575 -2.11994 55.90084 0.80542 53.90012 77.11443 70.31783 16.06307 -5.30833 40.4233 12.40977 -38.98561 57.6813 -83.04255 -0.71919 6.12605 48.70196 -1.33983 -8.12058 -28.21431 -6.04734 -1.93801 -3.14619 76.65516 16.07201 0.75125 -36.41679 -13.11466 1.85716 3.43819
0.12787 0.0082 0.07312 -48.73002 -40.12672 8.79742 31.95961 -4.15986 3.90254 11.13708 -13.55467 -2.11994 56.81863 0.53506 53.77642 74.07675 70.13017 15.40058 -5.45129 36.52712 11.85315 -41.14838 62.878 -83.06341 1.92867 5.20058 48.63751 -1.61661 -8.50954 -28.20754 -6.05279 -1.87262 -3.11354 76.30599 16.20594 0.66589 -36.59088 -12.85931 1.83192 3.414
0.12607 0.0081 0.07258 -48.86516 -39.93702 9.03878 32.0923 -4.13083 4.73749 11.15055 -13.26227 -2.11994 57.85478 0.41047 53.63387 71.17142 69.82665 14.81484 -5.59071 32.89537 11.40605 -43.22783 67.14082 -83.08065 4.3034 4.42422 48.54351 -1.83957 -8.77607 -28.18055 -6.0588 -1.81896 -3.08684 75.94673 16.35093 0.56528 -36.72551 -12.66284 1.79074 3.38457
0.12417 0.00799 0.07202 -49.03723 -39.72108 9.31777 32.22666 -4.10801 5.5838 11.19091 -12.9708 -2.11994 59.27858 0.36303 53.63757 67.91398 69.15253 14.07914 -5.8288 28.6187 10.80515 -45.40711 71.47731 -83.0986 6.93394 3.53983 48.42922 -2.10527 -9.09036 -28.16426 -6.0653 -1.75486 -3.05473 75.54881 16.49422 0.44306 -36.87421 -12.4159 1.74059 3.34817
0.12262 0.00792 0.07148 -49.12781 -39.58131 9.5139 32.33288 -4.07841 6.48715 11.17951 -12.65912 -2.11994 59.7805 0.07246 53.3364 65.38238 69.34747 13.63923 -5.85347 25.63808 10.48419 -47.38675 76.10462 -83.11562 9.12568 2.81902 48.37369 -2.30538 -9.36768 -28.13366 -6.07049 -1.70726 -3.03124 75.24053 16.63359 0.37361 -37.01056 -12.24844 1.71856 3.32982
0.12185 0.00791 0.071 -49.01452 -39.61935 9.48986 32.39565 -4.02233 7.51221 11.00495 -12.29573 -2.11994 57.83083 -0.83091 52.12514 64.81343 71.96435 14.03579 -5.26537 26.2583 10.99447 -48.88848 81.28878 -83.15613 10.11656 2.58683 48.46448 -2.2961 -9.45161 -28.06876 -6.07191 -1.71252 -3.03517 75.16155 16.78314 0.46112 -37.1033 -12.33812 1.76883 3.36038
0.12145 0.00795 0.07055 -48.81661 -39.73213 9.38235 32.43227 -3.9586 8.57086 10.78156 -11.91864 -2.11994 54.97086 -1.95938 50.62263 64.99803 75.41762 14.73651 -4.46978 28.20082 11.78748 -50.15774 86.63975 -83.19372 10.62496 2.53373 48.61067 -2.21847 -9.49563 -27.98555 -6.07217 -1.73459 -3.04789 75.17171 16.92669 0.59661 -37.17843 -12.50895 1.84554 3.40819
0.12092 0.00798 0.0701 -48.64473 -39.81584 9.31013 32.47518 -3.8985 9.57788 10.59202 -11.55877 -2.11994 52.5314 -2.96699 49.30449 64.89289 78.40562 15.30399 -3.79078 29.57279 12.43955 -51.45233 91.74868 -83.21187 11.26559 2.41903 48.72854 -2.1754 -9.58125 -27.90118 -6.07332 -1.7472 -3.05572 75.14464 17.06229 0.69343 -37.25429 -12.63479 1.90761 3.44643
0.12022 0.00796 0.0696 -48.52309 -39.88109 9.24811 32.538 -3.83793 10.75255 10.35263 -11.14811 -2.11994 50.03755 -4.07175 47.76618 64.56354 81.772 15.84796 -3.01596 30.81808 13.1422 -53.0881 97.64711 -83.30683 12.28338 2.21361 48.86172 -2.12091 -9.58069 -27.85804 -6.07291 -1.76656 -3.06686 75.10496 17.24123 0.85859 -37.36366 -12.79195 1.982 3.49248
0.11998 0.00806 0.06921 -48.27917 -40.00275 9.14567 32.55458 -3.77719 11.57976 10.20655 -10.8428 -2.11994 47.45959 -5.01517 46.61689 64.87738 84.53863 16.51278 -2.39232 32.63072 13.80421 -53.96113 101.89414 -83.25483 12.40394 2.24029 48.97611 -2.0727 -9.7413 -27.72435 -6.07547 -1.77645 -3.07347 75.1127 17.33001 0.89788 -37.39812 -12.90362 2.03662 3.5262
0.12086 0.00847 0.06914 -47.69915 -40.24915 8.94825 32.44981 -3.70921 11.45019 10.31908 -10.81722 -2.11994 44.76605 -5.5241 46.62176 66.82096 85.48154 17.4501 -2.23431 35.80693 14.32676 -52.73966 101.708 -82.67378 10.08734 2.88925 49.01619 -2.05824 -10.40347 -27.34343 -6.08671 -1.75329 -3.06413 75.22471 17.15989 0.52756 -37.22901 -12.87782 2.02916 3.52147
0.12223 0.00901 0.06917 -47.00318 -40.55184 8.71366 32.30003 -3.643 10.96676 10.52862 -10.90092 -2.11994 42.04449 -5.84991 47.02723 69.37619 85.78299 18.4946 -2.23632 39.48542 14.79334 -50.76876 99.81974 -81.96386 6.90023 3.76116 49.0368 -2.05195 -11.21826 -26.87212 -6.10097 -1.72072 -3.05025 75.38245 16.90119 0.03725 -36.98556 -12.80255 2.00103 3.50378
0.12343 0.00949 0.06916 -46.37216 -40.83633 8.49886 32.17126 -3.58128 10.63516 10.70166 -10.94497 -2.11994 39.40344 -6.21286 47.24316 71.63146 86.35155 19.48451 -2.16696 42.85886 15.25663 -49.16627 98.58108 -81.39952 4.15536 4.51729 49.07156 -2.04175 -11.93264 -26.44314 -6.1137 -1.69426 -3.03926 75.52168 16.69101 -0.36431 -36.77554 -12.74507 1.98264 3.49196
0.12439 0.00995 0.06915 -45.68408 -41.09141 8.26956 32.03874 -3.49614 10.33922 10.84339 -10.94766 -2.11994 36.43104 -6.77354 47.47852 74.01942 87.05229 20.51813 -2.08453 46.6105 15.84387 -47.42734 97.8429 -80.48495 1.1817 5.34516 49.08543 -2.03042 -12.78113 -26.00834 -6.12696 -1.66031 -3.0249 75.65278 16.44693 -0.90525 -36.56372 -12.70976 1.96312 3.4805
0.12597 0.01048 0.06915 -45.0914 -41.42126 8.06192 31.90426 -3.4613 9.88914 11.07099 -11.06082 -2.11994 34.17055 -6.88208 47.77485 76.24933 87.31485 21.47175 -2.07016 49.66638 16.16489 -45.81137 95.69318 -80.24769 -1.49661 6.06848 49.13807 -2.02382 -13.38169 -25.56431 -6.13996 -1.63993 -3.01659 75.81261 16.25098 -1.18924 -36.34162 -12.616 1.94149 3.46541
0.12902 0.01117 0.06914 -44.76576 -41.93407 7.93001 31.77061 -3.55656 9.06084 11.53833 -11.46777 -2.11994 33.74467 -5.73158 48.12043 78.03332 86.52154 22.26967 -2.20354 50.75911 15.68407 -44.59412 89.73735 -82.10388 -3.30928 6.49866 49.29642 -2.03249 -13.30746 -25.11692 -6.15064 -1.6553 -3.02411 76.02225 16.22317 -0.69763 -36.07985 -12.36838 1.91186 3.43968
0.13267 0.01192 0.06912 -44.5454 -42.52174 7.82009 31.63743 -3.70404 8.09795 12.08423 -11.97905 -2.11994 34.0647 -4.14134 48.51799 79.60511 85.30997 22.96699 -2.40028 51.11325 14.94888 -43.5456 82.48094 -84.61464 -4.76138 6.80661 49.49502 -2.04531 -12.97133 -24.66274 -6.16113 -1.68517 -3.03814 76.26226 16.24474 0.05009 -35.81575 -12.06416 1.88191 3.41131
0.13609 0.01264 0.0691 -44.29324 -43.081 7.69637 31.50746 -3.83302 7.22061 12.57694 -12.43284 -2.11994 34.14089 -2.78777 48.90827 81.18096 84.28198 23.6461 -2.57081 51.74489 14.38396 -42.50904 76.02983 -86.69464 -6.26994 7.13562 49.67928 -2.05363 -12.72241 -24.21263 -6.17228 -1.71113 -3.05052 76.49982 16.2343 0.65557 -35.57231 -11.7884 1.85688 3.38662
0.13936 0.01334 0.0691 -43.96836 -43.6181 7.58841 31.36202 -3.93967 6.22301 13.14618 -12.93404 -2.11994 33.82176 -1.27329 49.24727 83.17712 83.24185 24.59005 -2.73935 52.63756 13.59462 -41.09335 68.60821 -89.31535 -8.2646 7.6144 49.84739 -2.07268 -12.60687 -23.75804 -6.18105 -1.72601 -3.05747 76.69083 16.2595 1.36399 -35.24405 -11.49924 1.81154 3.35125
0.14308 0.01411 0.06905 -43.82257 -44.219 7.45205 31.24881 -4.10558 5.45479 13.57425 -13.35851 -2.11994 34.49369 0.00911 49.6953 84.22871 82.1582 24.96833 -2.92069 52.80804 13.20279 -40.49035 62.92981 -90.98891 -9.14725 7.75395 50.05748 -2.07097 -12.15713 -23.30877 -6.19475 -1.76683 -3.07701 76.98574 16.22544 1.92292 -35.0922 -11.22541 1.80802 3.33736
0.14793 0.01501 0.06883 -44.13598 -44.97183 7.24327 31.23027 -4.41916 5.30031 13.5858 -13.55668 -2.11994 37.80686 0.53461 50.4739 82.80988 80.86277 23.70898 -3.15969 51.13175 14.0551 -42.32172 62.30994 -89.6935 -7.07146 6.94488 50.38534 -2.00473 -10.78123 -22.90749 -6.22177 -1.88205 -3.13272 77.55685 15.99767 1.98401 -35.43406 -11.00611 1.92578 3.38627
0.15322 0.01598 0.06855 -44.62773 -45.78675 7.00338 31.24298 -4.79102 5.39221 13.45357 -13.67149 -2.11994 42.07487 0.81258 51.3514 80.42839 79.5738 21.90057 -3.4024 48.75988 15.29858 -44.92362 63.50472 -87.45538 -3.88612 5.80527 50.75139 -1.91853 -9.09012 -22.50668 -6.25387 -2.02187 -3.20042 78.23179 15.71205 1.8899 -35.95258 -10.80485 2.08467 3.45643
0.1583 0.01692 0.0683 -45.04549 -46.5773 6.77029 31.23825 -5.13852 5.40846 13.39148 -13.81658 -2.11994 45.84986 1.20784 52.15286 78.42832 78.41669 20.41046 -3.61668 46.72279 16.31074 -47.02736 63.934 -85.781 -1.18092 4.8433 51.09308 -1.84554 -7.58639 -22.08494 -6.28374 -2.14614 -3.26064 78.86116 15.46555 1.88298 -36.38689 -10.59652 2.22106 3.51505
0.16344 0.01784 0.06806 -45.43966 -47.35573 6.56831 31.24852 -5.47952 5.26934 13.31159 -13.99725 -2.11994 49.90355 1.5961 53.08416 76.65867 76.68997 18.63224 -3.94259 44.57239 17.54899 -49.76981 64.09494 -83.57316 1.45929 3.76154 51.46806 -1.7554 -5.88618 -21.74896 -6.31294 -2.28882 -3.3294 79.48501 15.16779 1.81741 -36.83845 -10.38096 2.37345 3.5815
0.16855 0.01883 0.06778 -45.92068 -48.17132 6.29461 31.2333 -5.8464 5.51053 13.23405 -14.08295 -2.11994 53.58974 1.93718 53.77216 74.18227 76.13856 17.31787 -4.04056 42.51372 18.40136 -51.3521 65.22779 -82.22516 4.46271 2.85222 51.77933 -1.69597 -4.52518 -21.23631 -6.34516 -2.39947 -3.38347 80.14436 14.96087 1.8303 -37.29505 -10.18607 2.50234 3.63677
0.17352 0.02003 0.06741 -46.62641 -49.08957 5.82406 31.15423 -6.27738 6.77325 13.19455 -13.92383 -2.11994 56.05747 2.18284 53.72451 70.00022 78.99184 17.47964 -3.46779 40.78632 18.19282 -49.63813 68.90569 -83.64324 8.46384 2.49918 51.9298 -1.7282 -4.16709 -20.22225 -6.38099 -2.40949 -3.39098 80.87832 15.0328 2.12689 -37.73179 -10.03919 2.55596 3.65557
0.17842 0.0213 0.06699 -47.40798 -50.03968 5.28349 31.04582 -6.73084 8.40446 13.16317 -13.6724 -2.11994 58.11231 2.39255 53.43496 65.1418 83.00065 18.1157 -2.67221 39.19772 17.56753 -46.71477 73.44503 -85.92706 12.7407 2.33032 52.00995 -1.79184 -4.16472 -19.03386 -6.42032 -2.38725 -3.3837 81.64391 15.19559 2.50115 -38.16598 -9.91361 2.58461 3.66249
0.18329 0.02253 0.06661 -48.13504 -50.96506 4.77915 30.94145 -7.16921 9.84764 13.12943 -13.46413 -2.11994 60.33373 2.63275 53.28272 60.58394 86.37613 18.49587 -2.00546 37.6077 17.0653 -44.27712 77.40138 -87.704 16.71509 2.08011 52.10619 -1.83951 -4.00775 -17.93294 -6.46033 -2.38404 -3.38533 82.39353 15.30716 2.81941 -38.59487 -9.78163 2.62489 3.67514
0.18844 0.02382 0.06619 -48.95119 -51.93666 4.25525 30.8772 -7.63025 11.38841 13.08303 -13.24633 -2.11994 62.68094 2.80304 53.0213 56.01047 90.20506 19.02952 -1.22453 35.7261 16.8462 -42.1222 82.24426 -89.92228 21.47664 1.81448 52.27121 -1.89278 -3.80923 -16.79336 -6.49097 -2.36423 -3.37865 83.15345 15.45759 3.21956 -39.05627 -9.63649 2.66533 3.68711
0.19297 0.02499 0.06582 -49.59974 -52.8178 3.75568 30.72225 -8.04863 12.80741 13.06937 -13.02951 -2.11994 64.65169 3.11584 52.92491 51.33485 93.36797 19.36031 -0.62586 34.50214 15.94643 -39.09876 85.40218 -91.44552 24.64929 1.62137 52.2752 -1.94317 -3.78658 -15.69775 -6.54183 -2.36977 -3.38496 83.89816 15.55074 3.46991 -39.44823 -9.52349 2.69906 3.69743
0.19586 0.0258 0.06561 -49.74674 -53.44852 3.34215 30.32211 -8.34344 13.82316 13.12239 -12.82109 -2.11994 65.71007 3.8109 53.37419 46.43552 94.37614 19.04666 -0.60713 34.99049 13.15423 -33.81768 83.86567 -90.78644 23.36918 1.65291 51.85654 -1.96901 -4.1577 -14.72488 -6.64819 -2.464 -3.43638 84.59178 15.45286 3.28533 -39.63786 -9.49512 2.71942 3.70571
0.19809 0.02647 0.06545 -49.72559 -53.98522 2.9553 29.83219 -8.59423 14.69812 13.21255 -12.62028 -2.11994 66.39351 4.65455 53.99176 41.48364 94.68135 18.51182 -0.77533 36.14917 9.71063 -27.73008 80.57013 -89.41262 20.47909 1.74122 51.27737 -1.99271 -4.69543 -13.8101 -6.77463 -2.58279 -3.50033 85.26855 15.29687 2.94877 -39.75885 -9.49814 2.73381 3.7127
